<svg xmlns="http://www.w3.org/2000/svg" viewBox="0 0 24 24" height="24" width="24"><title>drinking-water-15.svg</title><rect fill="none" x="0" y="0" width="24" height="24"></rect><rect x="2" y="2" rx="2" ry="2" width="20" height="20" stroke="#039" style="stroke-linejoin:round;stroke-miterlimit:4px;" fill="#039" stroke-width="4"></rect><rect x="2" y="2" width="20" height="20" rx="2" ry="2" fill="#fff"></rect><path fill="#039" transform="translate(4 4)" d="M6,1A2,2,0,0,0,4,3V6.5a0.5,0.5,0,0,0,.5.5h2A0.5,0.5,0,0,0,7,6.5v-2A0.5,0.5,0,0,1,7.5,4H14V1H6Z"></path><path fill="#039" transform="translate(4 4)" d="M7,15H4a0.5,0.5,0,0,1-.48-0.38L2,8.62A0.5,0.5,0,0,1,2.5,8h6A0.5,0.5,0,0,1,9,8.62l-1.5,6A0.5,0.5,0,0,1,7,15ZM3.65,11l3.71,0L7.86,9H3.14Z"></path></svg>