<svg xmlns="http://www.w3.org/2000/svg" viewBox="0 0 24 24" height="24" width="24"><title>building-15.svg</title><rect fill="none" x="0" y="0" width="24" height="24"></rect><rect x="2" y="2" rx="2" ry="2" width="20" height="20" stroke="#c00" style="stroke-linejoin:round;stroke-miterlimit:4px;" fill="#c00" stroke-width="4"></rect><rect x="2" y="2" width="20" height="20" rx="2" ry="2" fill="#ffffff"></rect><path fill="#c00" transform="translate(4 4)" d="M3,2v11h5v-3h3v3h1V2H3z M7,12H4v-2h3V12z M7,9H4V7h3V9z M7,6H4V4h3V6z M11,9H8V7h3V9z M11,6H8V4h3V6z"></path></svg>